<?xml version="1.0" encoding="UTF-8" standalone="no"?>
<svg
   xmlns:dc="http://purl.org/dc/elements/1.1/"
   xmlns:cc="http://creativecommons.org/ns#"
   xmlns:rdf="http://www.w3.org/1999/02/22-rdf-syntax-ns#"
   xmlns:svg="http://www.w3.org/2000/svg"
   xmlns="http://www.w3.org/2000/svg"
   xmlns:sodipodi="http://sodipodi.sourceforge.net/DTD/sodipodi-0.dtd"
   xmlns:inkscape="http://www.inkscape.org/namespaces/inkscape"
   inkscape:version="1.0 (4035a4fb49, 2020-05-01)"
   sodipodi:docname="personal logo wide.svg"
   viewBox="0 0 202.40075 60.467945"
   height="60.467945"
   width="202.40074"
   id="svg62"
   version="1.1">
  <metadata
     id="metadata68">
    <rdf:RDF>
      <cc:Work
         rdf:about="">
        <dc:format>image/svg+xml</dc:format>
        <dc:type
           rdf:resource="http://purl.org/dc/dcmitype/StillImage" />
        <dc:title></dc:title>
      </cc:Work>
    </rdf:RDF>
  </metadata>
  <defs
     id="defs66" />
  <sodipodi:namedview
     fit-margin-bottom="0"
     fit-margin-right="0"
     fit-margin-left="0"
     fit-margin-top="0"
     inkscape:current-layer="g70"
     inkscape:window-maximized="1"
     inkscape:window-y="26"
     inkscape:window-x="0"
     inkscape:cy="30.80126"
     inkscape:cx="84.629598"
     inkscape:zoom="5.7881251"
     inkscape:pagecheckerboard="true"
     showgrid="false"
     id="namedview64"
     inkscape:window-height="742"
     inkscape:window-width="1366"
     inkscape:pageshadow="2"
     inkscape:pageopacity="0"
     guidetolerance="10"
     gridtolerance="10"
     objecttolerance="10"
     borderopacity="1"
     bordercolor="#666666"
     pagecolor="#ffffff" />
  <g
     transform="translate(-0.00368216,-3.441578e-4)"
     id="g70"
     inkscape:label="Image"
     inkscape:groupmode="layer">
    <path
       d="m 0.02145035,17.737783 c -0.022300003,-0.02516 -0.0232,-0.04886 -0.005,-0.128097 0.0123,-0.05348 0.0228,-0.14725 0.0231,-0.208387 4.7e-4,-0.07577 0.63244998,-2.854339 1.98488005,-8.7267081 1.61988,-7.0336379 1.99117,-8.62088634 2.02218,-8.64461834 0.0333,-0.025492 0.42371,-0.028135 3.17267,-0.021478 2.9683706,0.00719 3.6299206,0.018618 3.8595906,0.066677 0.49047,0.1026327 0.78575,0.1967235 1.12588,0.3587595 0.8542,0.4069371 1.38056,1.05775324 1.63813,2.02545624 0.23099,0.867868 0.24542,2.2402421 0.0355,3.3793246 -0.20439,1.1091848 -0.6187,2.0142834 -1.27252,2.779931 -0.83897,0.98246 -1.90876,1.6975831 -2.9778206,1.9905771 -0.1377,0.03774 -0.25361,0.07186 -0.25757,0.07582 -0.004,0.004 0.45154,1.581444 1.0122206,3.505524 0.56068,1.924081 1.01942,3.516609 1.01942,3.538953 0,0.04048 -0.003,0.04063 -0.84113,0.04063 -0.7840206,0 -0.8418506,-0.0023 -0.8516406,-0.03429 -0.006,-0.01886 -0.4387,-1.537471 -0.96204,-3.374696 -0.52334,-1.837224 -0.96071,-3.369061 -0.97192,-3.404081 l -0.0204,-0.06367 h -2.27038 -2.27037 l -0.0194,0.07347 c -0.0107,0.04041 -0.36851,1.572244 -0.79523,3.404081 -0.42672,1.831837 -0.7804,3.34604 -0.78596,3.364897 -0.009,0.03192 -0.0637,0.03423 -0.78757007,0.03354 -0.68238998,-6.54e-4 -0.78079998,-0.0045 -0.80479998,-0.03161 z M 8.2381804,9.3778869 c 0.60615,-0.09021 1.01669,-0.212308 1.46308,-0.435137 0.9604406,-0.479439 1.7422606,-1.3616422 2.1778806,-2.4575069 0.41594,-1.0463694 0.53469,-2.4815502 0.2845,-3.4383673 -0.21776,-0.8327879 -0.73516,-1.2992415 -1.6724,-1.5076966 -0.43774,-0.09736 -0.40115,-0.096027 -2.8310206,-0.1031964 l -2.28245,-0.00673 -0.90967,3.9533037 c -0.50031,2.1743169 -0.91363,3.9737965 -0.91848,3.9988435 l -0.009,0.04554 2.24093,-0.0085 c 1.94449,-0.0074 2.26944,-0.01273 2.45644,-0.04056 z m 4.7938606,8.3337781 c 0.003,-0.03216 2.02949,-4.021256 4.50247,-8.8646551 3.37543,-6.6108732 4.50487,-8.80634084 4.53061,-8.80682984 0.0189,-3.582e-4 0.0343,-0.00947 0.0343,-0.020243 0,-0.012903 0.5523,-0.0195920022 1.61772,-0.0195920022 1.417,0 1.6214,0.003670002 1.64733,0.0295990022 0.0254,0.025418 0.0708,1.27302594 0.3215,8.83102084 0.16055,4.8407811 0.29207,8.8257601 0.29227,8.8555101 l 3.5e-4,0.05409 -0.82775,-0.0051 -0.82775,-0.0051 -0.10152,-2.399999 c -0.0558,-1.32 -0.10213,-2.411045 -0.10286,-2.424544 -0.001,-0.01959 -0.69811,-0.02354 -3.45068,-0.01959 l -3.44934,0.005 -1.25665,2.42449 -1.25665,2.424489 h -0.83974 -0.83974 z m 11.07773,-6.539075 c -0.007,-0.148163 -0.0786,-2.3147761 -0.15924,-4.8146939 -0.0806,-2.4999184 -0.15185,-4.6268571 -0.15825,-4.7265306 l -0.0116,-0.1812245 -0.35572,4.4e-6 -0.35572,4.4e-6 -2.31184,4.5202683 c -1.27154,2.4861478 -2.4202,4.7343089 -2.55262,4.9959139 l -0.24075,0.475646 h 3.07918 3.07918 z m 4.43459,6.573061 c -4.1e-4,-0.01347 0.91428,-4.002771 2.03266,-8.8651131 1.37184,-5.9643147 2.04138,-8.84068664 2.0579,-8.84081654 0.0135,-1.059e-4 0.0245,-0.00901 0.0245,-0.019784 0,-0.013008 1.61018,-0.0195920022 4.79136,-0.0195920022 2.92771,0 4.78701,0.007040002 4.78017,0.0181090022 -0.006,0.00996 2.3e-4,0.02098 0.0142,0.02449 0.019,0.00476 -0.0167,0.1840206 -0.14063,0.7067889 l -0.16604,0.70040814 h -3.97944 -3.97945 l -0.84298,3.6489796 -0.84297,3.6489799 3.40574,0.0049 3.40573,0.005 -5.3e-4,0.05382 c -2.9e-4,0.0296 -0.074,0.357985 -0.16372,0.72974 l -0.16319,0.6759191 -3.42158,0.005 c -1.88188,0.0027 -3.42159,0.0088 -3.42159,0.01349 0,0.0047 -0.38792,1.697147 -0.86204,3.761003 -0.47412,2.063855 -0.86204,3.757131 -0.86204,3.762834 0,0.0057 -0.37469,0.01037 -0.83265,0.01037 -0.65266,0 -0.83282,-0.0053 -0.83342,-0.02449 z m 10.9338,-0.01938 c 4.3e-4,-0.02436 2.0267,-4.009927 4.50281,-8.8568161 3.77205,-7.3836384 4.51087,-8.81711824 4.55655,-8.84082054 0.0462,-0.023984 0.29871,-0.0282890022 1.65882,-0.0282890022 1.05647,0 1.60429,0.006690002 1.60429,0.0195920022 0,0.010775 0.0132,0.019592 0.0294,0.019592 0.0234,0 0.0294,0.028433 0.0294,0.1383472 0,0.076091 0.12784,3.99698834 0.28409,8.71310534 0.15624,4.7161171 0.28408,8.6432471 0.28408,8.7269581 v 0.152201 h -0.82097 -0.82098 l -0.0122,-0.200817 c -0.017,-0.278968 -0.18747,-4.41717 -0.18747,-4.549954 v -0.108004 l -3.45306,1.77e-4 -3.45307,1.76e-4 -1.25628,2.424315 -1.25628,2.424314 -0.84494,0.0051 -0.84494,0.0051 7.8e-4,-0.04429 z m 11.08819,-6.407649 c 0,-0.06785 -0.0705,-2.2609081 -0.15673,-4.8734689 -0.0862,-2.6125604 -0.15673,-4.8054067 -0.15673,-4.8729914 l -10e-6,-0.1228813 -0.36591,0.00533 -0.36591,0.00533 -2.28937,4.4767347 c -1.25915,2.4622008 -2.40734,4.7081599 -2.55153,4.9910169 l -0.26216,0.514286 h 3.07417 3.07418 z m 4.45221,6.3585 c 0.008,-0.07211 4.00105,-17.45821204 4.0433,-17.60330354 0.006,-0.018857 0.0226,-0.034286 0.038,-0.034286 0.0154,0 0.0281,-0.00882 0.0281,-0.019592 0,-0.013013 1.6461,-0.0195960022 4.89912,-0.0195960022 2.99366,0 4.89476,0.007040002 4.88792,0.0181090022 -0.006,0.00996 7.7e-4,0.02098 0.0154,0.02449 0.0207,0.00498 0.004,0.1011872 -0.0757,0.4374011 -0.0563,0.2370612 -0.13083,0.55222424 -0.16567,0.70036234 l -0.0634,0.2693418 -4.09578,0.00494 -4.09579,0.00494 -0.74036,3.1836735 c -0.4072,1.7510204 -0.74586,3.2079183 -0.75257,3.237551 l -0.0122,0.053877 h 3.38114 3.38115 v 0.0496 c 0,0.03963 -0.28636,1.292981 -0.32551,1.424686 -0.01,0.03248 -0.18794,0.03429 -3.38714,0.03429 -3.19909,0 -3.3775,0.0018 -3.38743,0.03429 -0.006,0.01886 -0.35919,1.5418768 -0.78541,3.3844898 -0.42622,1.842612 -0.77975,3.365632 -0.78564,3.38449 -0.0102,0.03258 0.19288,0.03429 4.07553,0.03429 h 4.08622 l -7.5e-4,0.05388 c -4.1e-4,0.02963 -0.0741,0.362448 -0.16373,0.739591 l -0.16299,0.685715 -4.92285,0.0049 -4.92284,0.0049 0.01,-0.0931 z m 12.94534,0.04529 c 0,-0.02625 0.91249,-4.011347 2.02776,-8.8557671 1.11526,-4.84442 2.02775,-8.81232914 2.02775,-8.81757574 0,-0.00525 0.0132,-0.00954 0.0294,-0.00954 0.0162,0 0.0294,-0.00882 0.0294,-0.019592 0,-0.01274 0.27802,-0.0195930022 0.79487,-0.0195930022 0.64594,0 0.79988,0.005020002 0.82164,0.0267740022 0.0226,0.022638 -0.26293,1.27953304 -1.84838,8.13550974 l -1.87516,8.1087361 3.63964,0.005 c 3.31185,0.0045 3.63963,0.0078 3.63963,0.0361 0,0.02851 -0.28295,1.344396 -0.30607,1.423436 -0.01,0.03252 -0.2405,0.03429 -4.49525,0.03429 h -4.48521 z"
       style="fill:#000000;stroke-width:0.0195918"
       id="path167" />
    <path
       id="path165"
       d="m 106.46186,15.311365 v -3.712653 h 4.15347 4.15347 v 3.712653 3.712653 h -4.15347 -4.15347 z"
       style="fill:#000000;stroke-width:0.0195918" />
    <path
       id="path163"
       d="m 95.941051,15.311365 v -3.712653 h 4.143669 4.14367 v 3.712653 3.712653 h -4.14367 -4.143669 z"
       style="fill:#000000;stroke-width:0.0195918" />
    <path
       id="path161"
       d="M 57.227571,38.204426 V 21.100753 h 5.95592 5.95592 v 6.28898 6.288979 h 3.28163 3.28164 v -6.288979 -6.28898 h 5.95592 5.95592 V 38.204426 55.3081 h -5.95592 -5.95592 v -5.955919 -5.955918 h -3.28164 -3.28163 v 5.955918 5.955919 h -5.95592 -5.95592 z"
       style="fill:#000000;stroke-width:0.0195918" />
    <path
       id="path159"
       d="m 103.9737,55.952442 c -4.629859,-0.173858 -7.924029,-1.127712 -10.168159,-2.944277 -0.20608,-0.166817 -0.69601,-0.649076 -0.9061,-0.89192 -1.13137,-1.30775 -1.8916,-3.089892 -2.27744,-5.338746 -0.12609,-0.734922 -0.20664,-1.492979 -0.2549,-2.398701 -0.0248,-0.464736 -0.0289,-2.15724 -0.0291,-11.909882 l -2.3e-4,-11.368167 h 5.94613 5.946109 l 3.7e-4,11.123265 c 2.4e-4,6.975636 0.008,11.251757 0.0195,11.467856 0.0277,0.500006 0.0886,0.812764 0.2207,1.134593 0.25378,0.618117 0.71802,0.980178 1.50449,1.173345 0.82297,0.202131 2.02431,0.202133 2.83914,4e-6 1.05802,-0.262454 1.53591,-0.847968 1.66464,-2.039516 0.0141,-0.130517 0.0206,-3.748931 0.0206,-11.524898 V 21.100753 h 5.95635 5.95635 l -0.007,11.446531 c -0.005,8.412207 -0.0128,11.532223 -0.0294,11.769795 -0.0676,0.96299 -0.14127,1.629369 -0.25129,2.272653 -0.52216,3.053161 -1.65996,5.18296 -3.53381,6.614779 -2.43531,1.860822 -6.2107,2.783999 -11.31472,2.766729 -0.48466,-0.0016 -1.07075,-0.0101 -1.30243,-0.0188 z"
       style="fill:#000000;stroke-width:0.0195918" />
    <path
       id="path157"
       d="m 42.641451,55.953049 c -3.24751,-0.113374 -5.855,-0.697597 -7.64082,-1.711968 -1.68046,-0.95453 -2.95318,-2.41025 -3.82039,-4.36972 -0.87844,-1.984841 -1.41,-4.720868 -1.60627,-8.267755 -0.0586,-1.05859 -0.0704,-1.481595 -0.0821,-2.92898 -0.012,-1.491109 0.004,-2.377316 0.0633,-3.516734 0.22924,-4.398636 1.0023,-7.725528 2.29671,-9.884082 0.37377,-0.623306 0.73177,-1.085542 1.20679,-1.558168 0.39245,-0.390477 0.73544,-0.670866 1.1974,-0.978843 0.42441,-0.282948 0.66201,-0.418067 1.17431,-0.667827 2.20353,-1.074276 5.23315,-1.613376 9.07308,-1.614491 2.16746,-6.27e-4 4.29619,0.204978 7.01302,0.677368 0.52789,0.09179 3.4155,0.65443 3.52163,0.686181 0.0285,0.0085 0.0343,0.03412 0.0346,0.150978 6.1e-4,0.236323 -0.29772,9.054395 -0.30663,9.063738 -0.005,0.0048 -0.29681,-0.02412 -0.6494,-0.06426 -1.8564,-0.211382 -3.37347,-0.330902 -5.17657,-0.407824 -0.77255,-0.03296 -2.60863,-0.03358 -2.99755,-0.001 -1.30946,0.109642 -2.19786,0.352604 -2.85865,0.781788 -0.21062,0.136795 -0.53496,0.458571 -0.66745,0.662173 -0.41876,0.64349 -0.69759,1.69777 -0.83166,3.14449 -0.0744,0.802638 -0.0948,1.504745 -0.0827,2.840816 0.0136,1.503125 0.0408,2.154803 0.13194,3.164082 0.15935,1.764351 0.48294,2.817455 1.09562,3.565573 0.62986,0.769097 1.59605,1.084118 3.57538,1.165738 0.46397,0.01913 0.70403,0.01195 4.55405,-0.136195 2.23534,-0.08602 4.06545,-0.154452 4.0669,-0.152081 0.004,0.007 0.14816,8.68646 0.14724,8.881863 l -8.4e-4,0.178775 -0.0539,0.01139 c -0.0296,0.0063 -0.26106,0.05971 -0.51429,0.118773 -2.60295,0.607087 -5.27842,0.980241 -8.09143,1.128527 -1.06103,0.05593 -2.76201,0.07293 -3.77143,0.03769 z"
       style="fill:#000000;stroke-width:0.0195918" />
    <path
       id="path155"
       d="m 13.802261,55.999812 c -2.48229,-0.03358 -5.3466706,-0.301723 -8.5518606,-0.800548 -1.5692,-0.244217 -2.22434,-0.373742 -4.19263,-0.828917 l -0.83265005,-0.192555 -0.007,-0.09622 c -0.009,-0.134457 0.48960998,-8.987087 0.50754998,-9.007725 0.008,-0.0092 0.50252007,0.05009 1.09886007,0.131859 3.91488,0.536789 6.9934,0.829001 9.9455606,0.944033 1.0273,0.04003 2.41631,0.03079 2.75665,-0.01833 0.84593,-0.12209 1.32981,-0.352576 1.51459,-0.721444 0.23149,-0.462108 0.005,-0.856641 -0.61223,-1.066793 -0.31481,-0.107173 -1.34255,-0.308928 -2.53442,-0.497529 -1.94805,-0.308259 -2.9092306,-0.49264 -4.1308106,-0.792409 -2.27416,-0.558066 -3.99914,-1.233882 -5.29375,-2.07399 -0.78457,-0.509133 -1.45184,-1.165363 -1.95522,-1.922878 -0.74609007,-1.122749 -1.25049005,-2.665238 -1.44468005,-4.417959 -0.0623,-0.56249 -0.0816,-2.576121 -0.0375,-3.908571 0.0244,-0.737192 0.0689,-1.18119 0.19133,-1.910205 0.34947,-2.080723 1.05178005,-3.74657 2.08216005,-4.938757 1.58726,-1.836538 4.51322,-2.999269 8.4001406,-3.338084 0.82885,-0.07225 1.3146,-0.09187 2.52735,-0.102117 1.31153,-0.01108 2.24422,0.01266 3.59985,0.09161 2.79166,0.162579 6.1428,0.544911 9.10969,1.039325 0.57882,0.09646 1.05711,0.175374 1.06286,0.175374 0.006,0 0.0105,0.08476 0.0105,0.188354 0,0.291129 -0.2942,9.065843 -0.3043,9.07594 -0.005,0.0049 -0.32857,-0.02393 -0.71925,-0.06409 -3.88314,-0.399128 -6.45328,-0.599976 -8.67354,-0.677805 -1.39548,-0.04892 -3.73017,-0.0018 -4.44822,0.08984 -0.48595,0.06199 -0.71257,0.185051 -0.83955,0.45588 -0.0455,0.09699 -0.0518,0.134847 -0.0513,0.306573 5.5e-4,0.174901 0.007,0.20853 0.057,0.31347 0.0369,0.0768 0.10588,0.166544 0.19908,0.258871 0.11656,0.11546 0.17961,0.159015 0.3446,0.238042 0.45554,0.218193 1.37667,0.463308 3.87541,1.031258 2.46439,0.56014 4.19247,1.022243 5.40735,1.445973 1.27942,0.44624 2.3423,0.997127 3.38939,1.756706 0.99815,0.724079 1.7054,1.571242 2.12679,2.547517 0.36738,0.851144 0.60594,2.095359 0.71371,3.722449 0.06,0.905127 0.0603,2.494732 6.9e-4,3.330612 -0.18632,2.613048 -0.8458,4.642137 -2.01535,6.200816 -0.39821,0.530706 -0.96415,1.092921 -1.52134,1.511313 -1.90178,1.428043 -4.4952,2.231814 -7.95429,2.465248 -0.48707,0.03287 -1.80123,0.07115 -2.21388,0.06448 -0.14008,-0.0023 -0.40457,-0.0061 -0.58775,-0.0086 z"
       style="fill:#000000;stroke-width:0.0195918" />
    <path
       id="path153"
       d="m 190.2022,36.664896 v -5.11347 h 5.84817 5.84816 v 5.11347 5.113469 h -5.84816 -5.84817 z"
       style="fill:#000000;stroke-width:0.0195918" />
    <path
       id="path151"
       d="M 123.27649,38.173467 V 21.069794 l 5.85306,8.22e-4 5.85306,8.23e-4 3.91641,6.464478 3.9164,6.464479 h 0.31053 0.31054 V 27.53509 21.069784 h 5.95592 5.95592 v 17.103673 17.103674 l -5.88245,-7.84e-4 -5.88245,-7.84e-4 -3.86134,-6.93963 -3.86133,-6.939629 -0.33622,-0.0054 -0.33621,-0.0054 v 6.945768 6.945769 h -5.95592 -5.95592 V 38.173447 Z"
       style="fill:#000000;stroke-width:0.0195918" />
    <path
       id="path149"
       d="m 171.62914,55.851895 c -3.60036,-0.179446 -6.32695,-0.833278 -8.27755,-1.984949 -1.63277,-0.964022 -2.85529,-2.314535 -3.84248,-4.244773 -0.27476,-0.537222 -0.40984,-0.844403 -0.63535,-1.44481 -0.66334,-1.766137 -1.051,-4.089514 -1.20379,-7.214782 -0.0648,-1.325168 -0.07,-3.638018 -0.011,-4.885632 0.27907,-5.901618 1.65105,-9.884291 4.18405,-12.145779 1.40193,-1.251662 3.16648,-2.125367 5.40734,-2.677416 1.46056,-0.359818 3.04273,-0.572646 4.89796,-0.658856 0.64302,-0.02988 2.46327,-0.03033 3.04653,-7.64e-4 2.08782,0.105874 3.90273,0.304212 6.66149,0.727983 1.6414,0.252134 2.63142,0.441767 3.96708,0.759868 l 0.88163,0.209969 0.005,4.501023 0.005,4.501023 h -0.0847 c -0.0466,0 -0.8026,-0.06132 -1.68004,-0.136269 -2.84493,-0.243004 -4.4548,-0.356662 -6.59126,-0.465346 -0.96833,-0.04926 -3.62167,-0.04928 -4.34939,0 -1.0488,0.07097 -1.48592,0.139778 -1.99837,0.314559 -0.46368,0.158149 -0.87828,0.350044 -1.16859,0.540868 -0.7833,0.514887 -1.07392,1.71907 -1.19303,4.943502 -0.0286,0.773067 -0.029,2.820911 -7.9e-4,3.383951 0.0998,1.988746 0.38404,3.428517 0.86842,4.398368 0.52408,1.049337 1.50377,1.647581 2.95359,1.803599 0.33063,0.03558 0.92411,0.03888 1.74367,0.0097 0.30711,-0.01094 0.58262,-0.02006 0.61225,-0.02026 l 0.0539,-3.72e-4 v -1.22449 -1.22449 h -0.76091 -0.76091 l -0.0129,-1.738775 c -0.007,-0.956327 -0.0188,-2.834204 -0.0259,-4.173061 l -0.013,-2.434286 h 6.33134 6.33134 v 9.569725 9.569724 l -0.0637,0.0111 c -0.26455,0.04613 -2.17189,0.335301 -3.1004,0.470047 -3.39897,0.49326 -6.19432,0.7999 -8.51266,0.933806 -0.90694,0.05239 -2.85945,0.06642 -3.66367,0.02634 z"
       style="fill:#000000;stroke-width:0.0195918" />
    <path
       id="path78"
       d="m 188.95007,60.436294 c -0.0239,-0.02697 0.047,-1.038111 0.52421,-7.478437 0.30352,-4.095987 0.55675,-7.484717 0.56272,-7.530513 l 0.0109,-0.08327 h 6.15204 c 5.58327,0 6.1549,0.0029 6.18302,0.03099 0.0264,0.02643 0.0277,0.04537 0.008,0.128841 -0.0124,0.05382 -0.0222,0.134653 -0.0219,0.179628 4.3e-4,0.04849 -0.79488,3.064416 -1.95429,7.410871 -1.82925,6.857607 -1.9581,7.330566 -2.003,7.35184 -0.036,0.0171 -1.21908,0.0226 -4.74123,0.022 -4.2672,-6.9e-4 -4.69574,-0.004 -4.72088,-0.03194 z"
       style="fill:#000000;stroke-width:0.0195918" />
  </g>
</svg>
