<?xml version="1.0" encoding="UTF-8"?>
<svg width="202.4" height="60.468" inkscape:version="1.0 (4035a4fb49, 2020-05-01)" sodipodi:docname="personal logo wide.svg" version="1.1" viewBox="0 0 202.4 60.468" xmlns="http://www.w3.org/2000/svg" xmlns:cc="http://creativecommons.org/ns#" xmlns:dc="http://purl.org/dc/elements/1.1/" xmlns:inkscape="http://www.inkscape.org/namespaces/inkscape" xmlns:rdf="http://www.w3.org/1999/02/22-rdf-syntax-ns#" xmlns:sodipodi="http://sodipodi.sourceforge.net/DTD/sodipodi-0.dtd">
 <metadata>
  <rdf:RDF>
   <cc:Work rdf:about="">
    <dc:format>image/svg+xml</dc:format>
    <dc:type rdf:resource="http://purl.org/dc/dcmitype/StillImage"/>
    <dc:title/>
   </cc:Work>
  </rdf:RDF>
 </metadata>
 <sodipodi:namedview bordercolor="#666666" borderopacity="1" fit-margin-bottom="0" fit-margin-left="0" fit-margin-right="0" fit-margin-top="0" gridtolerance="10" guidetolerance="10" inkscape:current-layer="g70" inkscape:cx="84.629598" inkscape:cy="30.80126" inkscape:document-rotation="0" inkscape:pagecheckerboard="true" inkscape:pageopacity="0" inkscape:pageshadow="2" inkscape:window-height="742" inkscape:window-maximized="1" inkscape:window-width="1366" inkscape:window-x="0" inkscape:window-y="26" inkscape:zoom="5.7881251" objecttolerance="10" pagecolor="#ffffff" showgrid="false"/>
 <g transform="translate(-.0036822 -.00034416)" fill="#000000" stroke-width=".019592" inkscape:groupmode="layer" inkscape:label="Image">
  <path d="m0.02145 17.738c-0.0223-0.02516-0.0232-0.04886-5e-3 -0.1281 0.0123-0.05348 0.0228-0.14725 0.0231-0.20839 4.7e-4 -0.07577 0.63245-2.8543 1.9849-8.7267 1.6199-7.0336 1.9912-8.6209 2.0222-8.6446 0.0333-0.025492 0.42371-0.028135 3.1727-0.021478 2.9684 0.00719 3.6299 0.018618 3.8596 0.066677 0.49047 0.10263 0.78575 0.19672 1.1259 0.35876 0.8542 0.40694 1.3806 1.0578 1.6381 2.0255 0.23099 0.86787 0.24542 2.2402 0.0355 3.3793-0.20439 1.1092-0.6187 2.0143-1.2725 2.7799-0.83897 0.98246-1.9088 1.6976-2.9778 1.9906-0.1377 0.03774-0.25361 0.07186-0.25757 0.07582-4e-3 4e-3 0.45154 1.5814 1.0122 3.5055 0.56068 1.9241 1.0194 3.5166 1.0194 3.539 0 0.04048-3e-3 0.04063-0.84113 0.04063-0.78402 0-0.84185-0.0023-0.85164-0.03429-6e-3 -0.01886-0.4387-1.5375-0.96204-3.3747-0.52334-1.8372-0.96071-3.3691-0.97192-3.4041l-0.0204-0.06367h-4.5408l-0.0194 0.07347c-0.0107 0.04041-0.36851 1.5722-0.79523 3.4041s-0.7804 3.346-0.78596 3.3649c-9e-3 0.03192-0.0637 0.03423-0.78757 0.03354-0.68239-6.54e-4 -0.7808-0.0045-0.8048-0.03161zm8.2167-8.3599c0.60615-0.09021 1.0167-0.21231 1.4631-0.43514 0.96044-0.47944 1.7423-1.3616 2.1779-2.4575 0.41594-1.0464 0.53469-2.4816 0.2845-3.4384-0.21776-0.83279-0.73516-1.2992-1.6724-1.5077-0.43774-0.09736-0.40115-0.096027-2.831-0.1032l-2.2824-0.00673-0.90967 3.9533c-0.50031 2.1743-0.91363 3.9738-0.91848 3.9988l-9e-3 0.04554 2.2409-0.0085c1.9445-0.0074 2.2694-0.01273 2.4564-0.04056zm4.7939 8.3338c3e-3 -0.03216 2.0295-4.0213 4.5025-8.8647 3.3754-6.6109 4.5049-8.8063 4.5306-8.8068 0.0189-3.582e-4 0.0343-0.00947 0.0343-0.020243 0-0.012903 0.5523-0.019592 1.6177-0.019592 1.417 0 1.6214 0.00367 1.6473 0.029599 0.0254 0.025418 0.0708 1.273 0.3215 8.831 0.16055 4.8408 0.29207 8.8258 0.29227 8.8555l3.5e-4 0.05409-1.6555-0.0102-0.10152-2.4c-0.0558-1.32-0.10213-2.411-0.10286-2.4245-1e-3 -0.01959-0.69811-0.02354-3.4507-0.01959l-3.4493 5e-3 -2.5133 4.849h-1.6795zm11.078-6.5391c-7e-3 -0.14816-0.0786-2.3148-0.15924-4.8147-0.0806-2.4999-0.15185-4.6269-0.15825-4.7265l-0.0116-0.18122-0.71144 8.8e-6 -2.3118 4.5203c-1.2715 2.4861-2.4202 4.7343-2.5526 4.9959l-0.24075 0.47565h6.1584zm4.4346 6.5731c-4.1e-4 -0.01347 0.91428-4.0028 2.0327-8.8651 1.3718-5.9643 2.0414-8.8407 2.0579-8.8408 0.0135-1.059e-4 0.0245-0.00901 0.0245-0.019784 0-0.013008 1.6102-0.019592 4.7914-0.019592 2.9277 0 4.787 0.00704 4.7802 0.018109-6e-3 0.00996 2.3e-4 0.02098 0.0142 0.02449 0.019 0.00476-0.0167 0.18402-0.14063 0.70679l-0.16604 0.70041h-7.9589l-0.84298 3.649-0.84297 3.649 3.4057 0.0049 3.4057 5e-3 -5.3e-4 0.05382c-2.9e-4 0.0296-0.074 0.35798-0.16372 0.72974l-0.16319 0.67592-3.4216 5e-3c-1.8819 0.0027-3.4216 0.0088-3.4216 0.01349 0 0.0047-0.38792 1.6971-0.86204 3.761-0.47412 2.0639-0.86204 3.7571-0.86204 3.7628 0 0.0057-0.37469 0.01037-0.83265 0.01037-0.65266 0-0.83282-0.0053-0.83342-0.02449zm10.934-0.01938c4.3e-4 -0.02436 2.0267-4.0099 4.5028-8.8568 3.772-7.3836 4.5109-8.8171 4.5566-8.8408 0.0462-0.023984 0.29871-0.028289 1.6588-0.028289 1.0565 0 1.6043 0.00669 1.6043 0.019592 0 0.010775 0.0132 0.019592 0.0294 0.019592 0.0234 0 0.0294 0.028433 0.0294 0.13835 0 0.076091 0.12784 3.997 0.28409 8.7131 0.15624 4.7161 0.28408 8.6432 0.28408 8.727v0.1522h-1.642l-0.0122-0.20082c-0.017-0.27897-0.18747-4.4172-0.18747-4.55v-0.108l-6.9061 3.53e-4 -2.5126 4.8486-1.6899 0.0102 7.8e-4 -0.04429zm11.088-6.4076c0-0.06785-0.0705-2.2609-0.15673-4.8735-0.0862-2.6126-0.15673-4.8054-0.15673-4.873l-1e-5 -0.12288-0.73182 0.01066-2.2894 4.4767c-1.2592 2.4622-2.4073 4.7082-2.5515 4.991l-0.26216 0.51429h6.1484zm4.4522 6.3585c8e-3 -0.07211 4.001-17.458 4.0433-17.603 6e-3 -0.018857 0.0226-0.034286 0.038-0.034286s0.0281-0.00882 0.0281-0.019592c0-0.013013 1.6461-0.019596 4.8991-0.019596 2.9937 0 4.8948 0.00704 4.8879 0.018109-6e-3 0.00996 7.7e-4 0.02098 0.0154 0.02449 0.0207 0.00498 4e-3 0.10119-0.0757 0.4374-0.0563 0.23706-0.13083 0.55222-0.16567 0.70036l-0.0634 0.26934-8.1916 0.00988-0.74036 3.1837c-0.4072 1.751-0.74586 3.2079-0.75257 3.2376l-0.0122 0.053877h6.7623v0.0496c0 0.03963-0.28636 1.293-0.32551 1.4247-0.01 0.03248-0.18794 0.03429-3.3871 0.03429-3.1991 0-3.3775 0.0018-3.3874 0.03429-6e-3 0.01886-0.35919 1.5419-0.78541 3.3845-0.42622 1.8426-0.77975 3.3656-0.78564 3.3845-0.0102 0.03258 0.19288 0.03429 4.0755 0.03429h4.0862l-7.5e-4 0.05388c-4.1e-4 0.02963-0.0741 0.36245-0.16373 0.73959l-0.16299 0.68572-9.8457 0.0098 0.01-0.0931zm12.945 0.04529c0-0.02625 0.91249-4.0113 2.0278-8.8558 1.1153-4.8444 2.0278-8.8123 2.0278-8.8176 0-0.00525 0.0132-0.00954 0.0294-0.00954s0.0294-0.00882 0.0294-0.019592c0-0.01274 0.27802-0.019593 0.79487-0.019593 0.64594 0 0.79988 0.00502 0.82164 0.026774 0.0226 0.022638-0.26293 1.2795-1.8484 8.1355l-1.8752 8.1087 3.6396 5e-3c3.3118 0.0045 3.6396 0.0078 3.6396 0.0361 0 0.02851-0.28295 1.3444-0.30607 1.4234-0.01 0.03252-0.2405 0.03429-4.4952 0.03429h-4.4852z"/>
  <path d="m106.46 15.311v-3.7127h8.3069v7.4253h-8.3069z"/>
  <path d="m95.941 15.311v-3.7127h8.2873v7.4253h-8.2873z"/>
  <path d="m57.228 38.204v-17.104h11.912v12.578h6.5633v-12.578h11.912v34.207h-11.912v-11.912h-6.5633v11.912h-11.912z"/>
  <path d="m103.97 55.952c-4.6299-0.17386-7.924-1.1277-10.168-2.9443-0.20608-0.16682-0.69601-0.64908-0.9061-0.89192-1.1314-1.3078-1.8916-3.0899-2.2774-5.3387-0.12609-0.73492-0.20664-1.493-0.2549-2.3987-0.0248-0.46474-0.0289-2.1572-0.0291-11.91l-2.3e-4 -11.368h11.892l3.7e-4 11.123c2.4e-4 6.9756 8e-3 11.252 0.0195 11.468 0.0277 0.50001 0.0886 0.81276 0.2207 1.1346 0.25378 0.61812 0.71802 0.98018 1.5045 1.1733 0.82297 0.20213 2.0243 0.20213 2.8391 4e-6 1.058-0.26245 1.5359-0.84797 1.6646-2.0395 0.0141-0.13052 0.0206-3.7489 0.0206-11.525v-11.335h11.913l-7e-3 11.447c-5e-3 8.4122-0.0128 11.532-0.0294 11.77-0.0676 0.96299-0.14127 1.6294-0.25129 2.2727-0.52216 3.0532-1.66 5.183-3.5338 6.6148-2.4353 1.8608-6.2107 2.784-11.315 2.7667-0.48466-0.0016-1.0708-0.0101-1.3024-0.0188z"/>
  <path d="m42.641 55.953c-3.2475-0.11337-5.855-0.6976-7.6408-1.712-1.6805-0.95453-2.9532-2.4102-3.8204-4.3697-0.87844-1.9848-1.41-4.7209-1.6063-8.2678-0.0586-1.0586-0.0704-1.4816-0.0821-2.929-0.012-1.4911 4e-3 -2.3773 0.0633-3.5167 0.22924-4.3986 1.0023-7.7255 2.2967-9.8841 0.37377-0.62331 0.73177-1.0855 1.2068-1.5582 0.39245-0.39048 0.73544-0.67087 1.1974-0.97884 0.42441-0.28295 0.66201-0.41807 1.1743-0.66783 2.2035-1.0743 5.2332-1.6134 9.0731-1.6145 2.1675-6.27e-4 4.2962 0.20498 7.013 0.67737 0.52789 0.09179 3.4155 0.65443 3.5216 0.68618 0.0285 0.0085 0.0343 0.03412 0.0346 0.15098 6.1e-4 0.23632-0.29772 9.0544-0.30663 9.0637-5e-3 0.0048-0.29681-0.02412-0.6494-0.06426-1.8564-0.21138-3.3735-0.3309-5.1766-0.40782-0.77255-0.03296-2.6086-0.03358-2.9976-1e-3 -1.3095 0.10964-2.1979 0.3526-2.8586 0.78179-0.21062 0.1368-0.53496 0.45857-0.66745 0.66217-0.41876 0.64349-0.69759 1.6978-0.83166 3.1445-0.0744 0.80264-0.0948 1.5047-0.0827 2.8408 0.0136 1.5031 0.0408 2.1548 0.13194 3.1641 0.15935 1.7644 0.48294 2.8175 1.0956 3.5656 0.62986 0.7691 1.596 1.0841 3.5754 1.1657 0.46397 0.01913 0.70403 0.01195 4.554-0.1362 2.2353-0.08602 4.0654-0.15445 4.0669-0.15208 4e-3 7e-3 0.14816 8.6865 0.14724 8.8819l-8.4e-4 0.17878-0.0539 0.01139c-0.0296 0.0063-0.26106 0.05971-0.51429 0.11877-2.603 0.60709-5.2784 0.98024-8.0914 1.1285-1.061 0.05593-2.762 0.07293-3.7714 0.03769z"/>
  <path d="m13.802 56c-2.4823-0.03358-5.3467-0.30172-8.5519-0.80055-1.5692-0.24422-2.2243-0.37374-4.1926-0.82892l-0.83265-0.19256-7e-3 -0.09622c-9e-3 -0.13446 0.48961-8.9871 0.50755-9.0077 8e-3 -0.0092 0.50252 0.05009 1.0989 0.13186 3.9149 0.53679 6.9934 0.829 9.9456 0.94403 1.0273 0.04003 2.4163 0.03079 2.7566-0.01833 0.84593-0.12209 1.3298-0.35258 1.5146-0.72144 0.23149-0.46211 5e-3 -0.85664-0.61223-1.0668-0.31481-0.10717-1.3426-0.30893-2.5344-0.49753-1.948-0.30826-2.9092-0.49264-4.1308-0.79241-2.2742-0.55807-3.9991-1.2339-5.2938-2.074-0.78457-0.50913-1.4518-1.1654-1.9552-1.9229-0.74609-1.1227-1.2505-2.6652-1.4447-4.418-0.0623-0.56249-0.0816-2.5761-0.0375-3.9086 0.0244-0.73719 0.0689-1.1812 0.19133-1.9102 0.34947-2.0807 1.0518-3.7466 2.0822-4.9388 1.5873-1.8365 4.5132-2.9993 8.4001-3.3381 0.82885-0.07225 1.3146-0.09187 2.5274-0.10212 1.3115-0.01108 2.2442 0.01266 3.5998 0.09161 2.7917 0.16258 6.1428 0.54491 9.1097 1.0393 0.57882 0.09646 1.0571 0.17537 1.0629 0.17537 6e-3 0 0.0105 0.08476 0.0105 0.18835 0 0.29113-0.2942 9.0658-0.3043 9.0759-5e-3 0.0049-0.32857-0.02393-0.71925-0.06409-3.8831-0.39913-6.4533-0.59998-8.6735-0.6778-1.3955-0.04892-3.7302-0.0018-4.4482 0.08984-0.48595 0.06199-0.71257 0.18505-0.83955 0.45588-0.0455 0.09699-0.0518 0.13485-0.0513 0.30657 5.5e-4 0.1749 7e-3 0.20853 0.057 0.31347 0.0369 0.0768 0.10588 0.16654 0.19908 0.25887 0.11656 0.11546 0.17961 0.15902 0.3446 0.23804 0.45554 0.21819 1.3767 0.46331 3.8754 1.0313 2.4644 0.56014 4.1925 1.0222 5.4074 1.446 1.2794 0.44624 2.3423 0.99713 3.3894 1.7567 0.99815 0.72408 1.7054 1.5712 2.1268 2.5475 0.36738 0.85114 0.60594 2.0954 0.71371 3.7224 0.06 0.90513 0.0603 2.4947 6.9e-4 3.3306-0.18632 2.613-0.8458 4.6421-2.0154 6.2008-0.39821 0.53071-0.96415 1.0929-1.5213 1.5113-1.9018 1.428-4.4952 2.2318-7.9543 2.4652-0.48707 0.03287-1.8012 0.07115-2.2139 0.06448-0.14008-0.0023-0.40457-0.0061-0.58775-0.0086z"/>
  <path d="m190.2 36.665v-5.1135h11.696v10.227h-11.696z"/>
  <path d="m123.28 38.173v-17.104l11.706 0.001645 7.8328 12.929h0.62107v-12.931h11.912v34.207l-11.765-0.001568-7.7227-13.879-0.67243-0.0108v13.892h-11.912v-17.104z"/>
  <path d="m171.63 55.852c-3.6004-0.17945-6.327-0.83328-8.2776-1.9849-1.6328-0.96402-2.8553-2.3145-3.8425-4.2448-0.27476-0.53722-0.40984-0.8444-0.63535-1.4448-0.66334-1.7661-1.051-4.0895-1.2038-7.2148-0.0648-1.3252-0.07-3.638-0.011-4.8856 0.27907-5.9016 1.651-9.8843 4.184-12.146 1.4019-1.2517 3.1665-2.1254 5.4073-2.6774 1.4606-0.35982 3.0427-0.57265 4.898-0.65886 0.64302-0.02988 2.4633-0.03033 3.0465-7.64e-4 2.0878 0.10587 3.9027 0.30421 6.6615 0.72798 1.6414 0.25213 2.6314 0.44177 3.9671 0.75987l0.88163 0.20997 0.01 9.002h-0.0847c-0.0466 0-0.8026-0.06132-1.68-0.13627-2.8449-0.243-4.4548-0.35666-6.5913-0.46535-0.96833-0.04926-3.6217-0.04928-4.3494 0-1.0488 0.07097-1.4859 0.13978-1.9984 0.31456-0.46368 0.15815-0.87828 0.35004-1.1686 0.54087-0.7833 0.51489-1.0739 1.7191-1.193 4.9435-0.0286 0.77307-0.029 2.8209-7.9e-4 3.384 0.0998 1.9887 0.38404 3.4285 0.86842 4.3984 0.52408 1.0493 1.5038 1.6476 2.9536 1.8036 0.33063 0.03558 0.92411 0.03888 1.7437 0.0097 0.30711-0.01094 0.58262-0.02006 0.61225-0.02026l0.0539-3.72e-4v-2.449h-1.5218l-0.0129-1.7388c-7e-3 -0.95633-0.0188-2.8342-0.0259-4.1731l-0.013-2.4343h12.663v19.139l-0.0637 0.0111c-0.26455 0.04613-2.1719 0.3353-3.1004 0.47005-3.399 0.49326-6.1943 0.7999-8.5127 0.93381-0.90694 0.05239-2.8594 0.06642-3.6637 0.02634z"/>
  <path d="m188.95 60.436c-0.0239-0.02697 0.047-1.0381 0.52421-7.4784 0.30352-4.096 0.55675-7.4847 0.56272-7.5305l0.0109-0.08327h6.152c5.5833 0 6.1549 0.0029 6.183 0.03099 0.0264 0.02643 0.0277 0.04537 8e-3 0.12884-0.0124 0.05382-0.0222 0.13465-0.0219 0.17963 4.3e-4 0.04849-0.79488 3.0644-1.9543 7.4109-1.8292 6.8576-1.9581 7.3306-2.003 7.3518-0.036 0.0171-1.2191 0.0226-4.7412 0.022-4.2672-6.9e-4 -4.6957-4e-3 -4.7209-0.03194z"/>
 </g>
</svg>
